<svg width="80" height="80" viewBox="0 0 80 80" fill="none" xmlns="http://www.w3.org/2000/svg">
<g clip-path="url(#clip0_216_3262)">
<g clip-path="url(#clip1_216_3262)">
<path d="M57.9502 70C54.2346 70 51.0835 68.7067 48.4968 66.12C45.9102 63.5289 44.6168 60.3778 44.6168 56.6667C44.6168 52.9556 45.9102 49.8056 48.4968 47.2167C51.0835 44.6278 54.2335 43.3333 57.9468 43.3333C61.6624 43.3333 64.8135 44.6278 67.4002 47.2167C69.989 49.8033 71.2835 52.9533 71.2835 56.6667C71.2835 60.38 69.989 63.5311 67.4002 66.12C64.8113 68.7089 61.6613 70.0022 57.9502 70ZM59.2302 56.1167V48.3333C59.2302 47.9911 59.1024 47.6911 58.8468 47.4333C58.589 47.18 58.2891 47.0533 57.9468 47.0533C57.6068 47.0533 57.3079 47.1811 57.0502 47.4367C56.7946 47.6922 56.6668 47.9911 56.6668 48.3333V56.11C56.6668 56.45 56.729 56.78 56.8535 57.1C56.9757 57.4178 57.1824 57.7222 57.4735 58.0133L62.5568 63.0967C62.8057 63.3433 63.0991 63.4778 63.4368 63.5C63.7746 63.5222 64.0879 63.3878 64.3768 63.0967C64.6657 62.8056 64.8113 62.5022 64.8135 62.1867C64.8157 61.8711 64.6713 61.5678 64.3802 61.2767L59.2302 56.1167ZM18.7202 66.6667C17.2379 66.6667 15.9702 66.1389 14.9168 65.0833C13.8635 64.0278 13.3357 62.7622 13.3335 61.2867V18.7167C13.3335 17.2367 13.8613 15.97 14.9168 14.9167C15.9724 13.8633 17.2391 13.3356 18.7168 13.3333H34.1735C34.4846 12.0311 35.1768 10.9367 36.2502 10.05C37.3235 9.16112 38.5735 8.71667 40.0002 8.71667C41.4535 8.71667 42.7135 9.16112 43.7802 10.05C44.8468 10.9345 45.5357 12.0289 45.8468 13.3333H61.2802C62.7624 13.3333 64.0313 13.8611 65.0868 14.9167C66.1424 15.9722 66.6691 17.2389 66.6668 18.7167V34.7433C66.6668 35.2167 66.5068 35.6122 66.1868 35.93C65.8668 36.2478 65.4702 36.4078 64.9968 36.41C64.5235 36.4122 64.1279 36.2522 63.8102 35.93C63.4924 35.6078 63.3335 35.2122 63.3335 34.7433V18.72C63.3335 18.2067 63.1202 17.7356 62.6935 17.3067C62.2668 16.8778 61.7957 16.6645 61.2802 16.6667H53.3335V21.41C53.3335 22.1722 53.0779 22.8122 52.5668 23.33C52.0557 23.8478 51.4224 24.1056 50.6668 24.1033H29.3335C28.5779 24.1033 27.9446 23.8456 27.4335 23.33C26.9224 22.8145 26.6668 22.1745 26.6668 21.41V16.6667H18.7202C18.2068 16.6667 17.7357 16.88 17.3068 17.3067C16.8779 17.7333 16.6646 18.2045 16.6668 18.72V61.2833C16.6668 61.8811 16.8591 62.3722 17.2435 62.7567C17.6279 63.1411 18.1202 63.3333 18.7202 63.3333H38.1402C38.6135 63.3333 39.0102 63.4933 39.3302 63.8133C39.6502 64.1333 39.8091 64.53 39.8068 65.0033C39.8046 65.4767 39.6457 65.8722 39.3302 66.19C39.0146 66.5078 38.6179 66.6667 38.1402 66.6667H18.7202ZM40.0102 17.4333C40.7768 17.4333 41.4157 17.1756 41.9268 16.66C42.4379 16.1422 42.6935 15.5 42.6935 14.7333C42.6935 13.9667 42.4346 13.3278 41.9168 12.8167C41.399 12.3056 40.7568 12.05 39.9902 12.05C39.2235 12.05 38.5846 12.31 38.0735 12.83C37.5624 13.35 37.3068 13.9922 37.3068 14.7567C37.3068 15.5211 37.5668 16.1589 38.0868 16.67C38.6068 17.1811 39.2479 17.4333 40.0102 17.4333Z" fill="#424F9C"/>
</g>
</g>
<defs>
<clipPath id="clip0_216_3262">
<rect width="80" height="80" fill="white"/>
</clipPath>
<clipPath id="clip1_216_3262">
<rect width="80" height="80" fill="white"/>
</clipPath>
</defs>
</svg>
