<svg width="30" height="30" viewBox="0 0 30 30" fill="none" xmlns="http://www.w3.org/2000/svg">
<path d="M15 28.125C7.7625 28.125 1.875 22.2375 1.875 15C1.875 7.7625 7.7625 1.875 15 1.875C22.2375 1.875 28.125 7.7625 28.125 15C28.125 22.2375 22.2375 28.125 15 28.125ZM15 3.75C8.79375 3.75 3.75 8.79375 3.75 15C3.75 21.2062 8.79375 26.25 15 26.25C21.2062 26.25 26.25 21.2062 26.25 15C26.25 8.79375 21.2062 3.75 15 3.75Z" fill="#FE660C"/>
<path d="M15 21.5625C14.475 21.5625 14.0625 21.15 14.0625 20.625V9.375C14.0625 8.85 14.475 8.4375 15 8.4375C15.525 8.4375 15.9375 8.85 15.9375 9.375V20.625C15.9375 21.15 15.525 21.5625 15 21.5625Z" fill="#FE660C"/>
<path d="M20.625 15.9375H9.375C8.85 15.9375 8.4375 15.525 8.4375 15C8.4375 14.475 8.85 14.0625 9.375 14.0625H20.625C21.15 14.0625 21.5625 14.475 21.5625 15C21.5625 15.525 21.15 15.9375 20.625 15.9375Z" fill="#FE660C"/>
</svg>
