<svg width="32" height="32" viewBox="0 0 32 32" fill="none" xmlns="http://www.w3.org/2000/svg">
<path d="M26.6668 13.3334C26.6668 12.9798 26.5263 12.6406 26.2763 12.3906C26.0262 12.1405 25.6871 12 25.3334 12C24.9798 12 24.6407 12.1405 24.3906 12.3906C24.1406 12.6406 24.0001 12.9798 24.0001 13.3334H26.6668ZM8.00011 13.3334C8.00011 12.9798 7.85963 12.6406 7.60958 12.3906C7.35954 12.1405 7.0204 12 6.66677 12C6.31315 12 5.97401 12.1405 5.72397 12.3906C5.47392 12.6406 5.33344 12.9798 5.33344 13.3334H8.00011ZM27.0574 16.9427C27.3089 17.1856 27.6457 17.32 27.9953 17.3169C28.3449 17.3139 28.6793 17.1737 28.9265 16.9265C29.1737 16.6793 29.314 16.3448 29.317 15.9952C29.32 15.6456 29.1857 15.3088 28.9428 15.0574L27.0574 16.9427ZM16.0001 4.00004L16.9428 3.05737C16.6927 2.80741 16.3537 2.66699 16.0001 2.66699C15.6466 2.66699 15.3075 2.80741 15.0574 3.05737L16.0001 4.00004ZM3.05744 15.0574C2.93009 15.1804 2.82852 15.3275 2.75864 15.4902C2.68876 15.6528 2.65198 15.8278 2.65044 16.0048C2.6489 16.1819 2.68264 16.3575 2.74968 16.5213C2.81672 16.6852 2.91572 16.834 3.04091 16.9592C3.16611 17.0844 3.31497 17.1834 3.47884 17.2505C3.6427 17.3175 3.81827 17.3512 3.99531 17.3497C4.17235 17.3482 4.34731 17.3114 4.50998 17.2415C4.67265 17.1716 4.81978 17.0701 4.94278 16.9427L3.05744 15.0574ZM9.33344 29.3334H22.6668V26.6667H9.33344V29.3334ZM26.6668 25.3334V13.3334H24.0001V25.3334H26.6668ZM8.00011 25.3334V13.3334H5.33344V25.3334H8.00011ZM28.9428 15.0574L16.9428 3.05737L15.0574 4.94271L27.0574 16.9427L28.9428 15.0574ZM15.0574 3.05737L3.05744 15.0574L4.94278 16.9427L16.9428 4.94271L15.0574 3.05737ZM22.6668 29.3334C23.7276 29.3334 24.7451 28.9119 25.4952 28.1618C26.2453 27.4117 26.6668 26.3942 26.6668 25.3334H24.0001C24.0001 25.687 23.8596 26.0261 23.6096 26.2762C23.3595 26.5262 23.0204 26.6667 22.6668 26.6667V29.3334ZM9.33344 26.6667C8.97982 26.6667 8.64068 26.5262 8.39063 26.2762C8.14058 26.0261 8.00011 25.687 8.00011 25.3334H5.33344C5.33344 26.3942 5.75487 27.4117 6.50501 28.1618C7.25516 28.9119 8.27258 29.3334 9.33344 29.3334V26.6667Z" fill="white"/>
</svg>
