<svg width="80" height="80" viewBox="0 0 80 80" fill="none" xmlns="http://www.w3.org/2000/svg">
<g clip-path="url(#clip0_216_3240)">
<path opacity="0.3" fill-rule="evenodd" clip-rule="evenodd" d="M35.2866 7.00009C36.4665 5.82167 38.0453 5.12827 39.7114 5.05669C41.3775 4.98511 43.0099 5.54055 44.2866 6.61342L44.7132 7.00342L51.0466 13.3334H59.9999C61.6812 13.3337 63.3004 13.9693 64.5329 15.1129C65.7655 16.2564 66.5205 17.8235 66.6466 19.5001L66.6666 20.0001V28.9534L72.9999 35.2868C74.1792 36.4669 74.8732 38.0463 74.9448 39.7132C75.0164 41.3801 74.4604 43.0132 73.3866 44.2901L72.9966 44.7134L66.6632 51.0468V60.0001C66.6638 61.682 66.0285 63.302 64.8849 64.5352C63.7413 65.7685 62.1737 66.5239 60.4966 66.6501L59.9999 66.6668H51.0499L44.7166 73.0001C43.5364 74.1794 41.957 74.8734 40.2901 74.945C38.6233 75.0166 36.9901 74.4606 35.7132 73.3868L35.2899 73.0001L28.9566 66.6668H19.9999C18.318 66.6673 16.698 66.0321 15.4647 64.8884C14.2315 63.7448 13.476 62.1773 13.3499 60.5001L13.3332 60.0001V51.0468L6.9999 44.7134C5.82055 43.5333 5.12656 41.9538 5.05497 40.287C4.98339 38.6201 5.5394 36.987 6.61323 35.7101L6.9999 35.2868L13.3332 28.9534V20.0001C13.3335 18.3187 13.9691 16.6996 15.1127 15.467C16.2562 14.2345 17.8233 13.4795 19.4999 13.3534L19.9999 13.3334H28.9532L35.2866 7.00009Z" fill="black"/>
<path fill-rule="evenodd" clip-rule="evenodd" d="M50.2634 29.9433L36.1167 44.0899L30.2234 38.1966C29.5979 37.5716 28.7498 37.2206 27.8655 37.2209C26.9813 37.2212 26.1334 37.5728 25.5084 38.1983C24.8834 38.8237 24.5324 39.6719 24.5327 40.5561C24.533 41.4404 24.8846 42.2882 25.5101 42.9133L33.5234 50.9266C33.8639 51.2673 34.2682 51.5375 34.7132 51.7219C35.1581 51.9063 35.6351 52.0012 36.1167 52.0012C36.5984 52.0012 37.0753 51.9063 37.5203 51.7219C37.9653 51.5375 38.3696 51.2673 38.7101 50.9266L54.9767 34.6566C55.5839 34.0279 55.9199 33.1859 55.9123 32.3119C55.9047 31.4379 55.5541 30.6019 54.9361 29.9839C54.3181 29.3659 53.482 29.0153 52.6081 29.0077C51.7341 29.0001 50.8921 29.3361 50.2634 29.9433Z" fill="black"/>
</g>
<defs>
<clipPath id="clip0_216_3240">
<rect width="80" height="80" fill="white"/>
</clipPath>
</defs>
</svg>
