<svg width="78" height="80" viewBox="0 0 78 80" fill="none" xmlns="http://www.w3.org/2000/svg">
<path d="M35 35L45 45M45 35L35 45" stroke="#344054" stroke-width="1.2" stroke-linecap="round" stroke-linejoin="round"/>
<path d="M23.3326 10H59.9998C60.8837 10 61.7314 10.3511 62.3564 10.9762C62.9815 11.6012 63.3326 12.4489 63.3326 13.3328V66.6672C63.3326 67.5511 62.9815 68.3988 62.3564 69.0238C61.7314 69.6489 60.8837 70 59.9998 70H19.9998C19.1159 70 18.2682 69.6489 17.6431 69.0238C17.0181 68.3988 16.667 67.5511 16.667 66.6672V16.6672M23.3326 10L16.667 16.6672M23.3326 10V16.6672H16.667" stroke="#306CFE" stroke-width="1.2" stroke-linecap="round" stroke-linejoin="round"/>
</svg>
