<svg width="30" height="30" viewBox="0 0 30 30" fill="none" xmlns="http://www.w3.org/2000/svg">
<g clip-path="url(#clip0_216_2463)">
<path d="M19.3125 25.25V19.2938C19.3122 19.0326 19.2604 18.774 19.16 18.5328C19.0597 18.2916 18.9128 18.0726 18.7277 17.8882C18.5427 17.7039 18.3231 17.5578 18.0815 17.4584C17.84 17.3589 17.5812 17.3081 17.32 17.3088H10.68C10.4188 17.3081 10.16 17.3589 9.91846 17.4584C9.67691 17.5578 9.45733 17.7039 9.27228 17.8882C9.08722 18.0726 8.94032 18.2916 8.83998 18.5328C8.73964 18.774 8.68783 19.0326 8.6875 19.2938V25.25M19.3125 3.10626V6.05876C19.3122 6.31998 19.2604 6.57856 19.16 6.81973C19.0597 7.06091 18.9128 7.27993 18.7277 7.46429C18.5427 7.64865 18.3231 7.79472 18.0815 7.89415C17.84 7.99358 17.5812 8.04442 17.32 8.04376H10.68C10.4188 8.04442 10.16 7.99358 9.91846 7.89415C9.67691 7.79472 9.45733 7.64865 9.27228 7.46429C9.08722 7.27993 8.94032 7.06091 8.83998 6.81973C8.73964 6.57856 8.68783 6.31998 8.6875 6.05876V2.75001M19.3125 3.10626C18.7941 2.87149 18.2316 2.75004 17.6625 2.75001H8.6875M19.3125 3.10626C19.7425 3.30126 20.1388 3.57376 20.48 3.91251L23.4575 6.88126C23.8272 7.24916 24.1207 7.68643 24.321 8.168C24.5214 8.64956 24.6247 9.16594 24.625 9.68751V21.2775C24.6247 21.8 24.5213 22.3174 24.3209 22.7999C24.1204 23.2825 23.8268 23.7208 23.4568 24.0897C23.0868 24.4587 22.6476 24.7511 22.1645 24.9502C21.6814 25.1493 21.1638 25.2512 20.6412 25.25H7.36C6.83747 25.2513 6.31981 25.1496 5.83663 24.9507C5.35345 24.7517 4.91423 24.4595 4.54411 24.0906C4.17399 23.7218 3.88022 23.2836 3.67961 22.8011C3.479 22.3186 3.37549 21.8013 3.375 21.2788V6.72001C3.37566 6.19759 3.47929 5.68041 3.67997 5.19807C3.88065 4.71572 4.17444 4.27767 4.54455 3.90896C4.91466 3.54024 5.35382 3.2481 5.83692 3.04924C6.32002 2.85038 6.83758 2.7487 7.36 2.75001H8.6875" stroke="#FE660C" stroke-width="1.875" stroke-linecap="round" stroke-linejoin="round"/>
</g>
<defs>
<clipPath id="clip0_216_2463">
<rect width="30" height="30" fill="white"/>
</clipPath>
</defs>
</svg>
