<svg width="50" height="50" viewBox="0 0 50 50" fill="none" xmlns="http://www.w3.org/2000/svg">
<path d="M35.5543 25.3267C35.3539 25.0986 35.2434 24.8053 35.2434 24.5017C35.2434 24.1981 35.3539 23.9048 35.5543 23.6767L37.1543 21.8767C37.3306 21.68 37.4401 21.4326 37.4671 21.1698C37.494 20.9071 37.437 20.6426 37.3043 20.4142L34.8043 16.0892C34.6729 15.8611 34.4729 15.6803 34.2327 15.5726C33.9926 15.4648 33.7245 15.4356 33.4668 15.4892L31.1168 15.9642C30.8178 16.026 30.5065 15.9762 30.2417 15.8242C29.9768 15.6722 29.7768 15.4286 29.6793 15.1392L28.9168 12.8517C28.833 12.6034 28.6732 12.3878 28.4601 12.2353C28.247 12.0827 27.9914 12.001 27.7293 12.0017H22.7293C22.4567 11.9875 22.187 12.0629 21.9613 12.2163C21.7356 12.3698 21.5663 12.593 21.4793 12.8517L20.7793 15.1392C20.6818 15.4286 20.4818 15.6722 20.217 15.8242C19.9521 15.9762 19.6408 16.026 19.3418 15.9642L16.9293 15.4892C16.685 15.4547 16.4359 15.4932 16.2135 15.6C15.9911 15.7068 15.8052 15.877 15.6793 16.0892L13.1793 20.4142C13.0433 20.64 12.9821 20.9031 13.0045 21.1657C13.027 21.4284 13.1319 21.6772 13.3043 21.8767L14.8918 23.6767C15.0922 23.9048 15.2027 24.1981 15.2027 24.5017C15.2027 24.8053 15.0922 25.0986 14.8918 25.3267L13.3043 27.1267C13.1319 27.3261 13.027 27.575 13.0045 27.8377C12.9821 28.1003 13.0433 28.3634 13.1793 28.5892L15.6793 32.9142C15.8107 33.1423 16.0107 33.3231 16.2509 33.4308C16.491 33.5386 16.7591 33.5678 17.0168 33.5142L19.3668 33.0392C19.6658 32.9774 19.9771 33.0272 20.242 33.1792C20.5068 33.3312 20.7068 33.5748 20.8043 33.8642L21.5668 36.1517C21.6538 36.4104 21.8231 36.6336 22.0488 36.7871C22.2745 36.9405 22.5442 37.0159 22.8168 37.0017H27.8168C28.0789 37.0024 28.3345 36.9207 28.5476 36.7681C28.7607 36.6156 28.9205 36.4 29.0043 36.1517L29.7668 33.8642C29.8643 33.5748 30.0643 33.3312 30.3292 33.1792C30.594 33.0272 30.9053 32.9774 31.2043 33.0392L33.5543 33.5142C33.812 33.5678 34.0801 33.5386 34.3202 33.4308C34.5604 33.3231 34.7604 33.1423 34.8918 32.9142L37.3918 28.5892C37.5245 28.3608 37.5815 28.0963 37.5546 27.8336C37.5276 27.5708 37.4181 27.3234 37.2418 27.1267L35.5543 25.3267ZM33.6918 27.0017L34.6918 28.1267L33.0918 30.9017L31.6168 30.6017C30.7165 30.4177 29.78 30.5706 28.9851 31.0315C28.1901 31.4923 27.592 32.229 27.3043 33.1017L26.8293 34.5017H23.6293L23.1793 33.0767C22.8916 32.204 22.2935 31.4673 21.4986 31.0065C20.7036 30.5456 19.7671 30.3927 18.8668 30.5767L17.3918 30.8767L15.7668 28.1142L16.7668 26.9892C17.3818 26.3017 17.7217 25.4116 17.7217 24.4892C17.7217 23.5668 17.3818 22.6767 16.7668 21.9892L15.7668 20.8642L17.3668 18.1142L18.8418 18.4142C19.7421 18.5982 20.6786 18.4453 21.4736 17.9844C22.2685 17.5236 22.8666 16.7869 23.1543 15.9142L23.6293 14.5017H26.8293L27.3043 15.9267C27.592 16.7994 28.1901 17.5361 28.9851 17.9969C29.78 18.4578 30.7165 18.6107 31.6168 18.4267L33.0918 18.1267L34.6918 20.9017L33.6918 22.0267C33.0838 22.7127 32.748 23.5976 32.748 24.5142C32.748 25.4308 33.0838 26.3158 33.6918 27.0017ZM25.2293 19.5017C24.2404 19.5017 23.2737 19.7949 22.4515 20.3444C21.6292 20.8938 20.9884 21.6747 20.6099 22.5883C20.2315 23.5019 20.1325 24.5072 20.3254 25.4772C20.5183 26.4471 20.9945 27.338 21.6938 28.0372C22.393 28.7365 23.284 29.2127 24.2539 29.4056C25.2238 29.5986 26.2291 29.4995 27.1427 29.1211C28.0564 28.7427 28.8373 28.1018 29.3867 27.2796C29.9361 26.4573 30.2293 25.4906 30.2293 24.5017C30.2293 23.1756 29.7025 21.9038 28.7648 20.9662C27.8272 20.0285 26.5554 19.5017 25.2293 19.5017ZM25.2293 27.0017C24.7349 27.0017 24.2515 26.8551 23.8404 26.5804C23.4293 26.3057 23.1088 25.9152 22.9196 25.4584C22.7304 25.0016 22.6809 24.4989 22.7774 24.014C22.8738 23.529 23.1119 23.0836 23.4615 22.7339C23.8112 22.3843 24.2566 22.1462 24.7416 22.0497C25.2265 21.9533 25.7292 22.0028 26.186 22.192C26.6428 22.3812 27.0333 22.7017 27.308 23.1128C27.5827 23.5239 27.7293 24.0072 27.7293 24.5017C27.7293 25.1647 27.4659 25.8006 26.9971 26.2695C26.5282 26.7383 25.8924 27.0017 25.2293 27.0017Z" fill="white"/>
</svg>
